# xmcd CD database file
# Copyright (C) 1996 Ti Kan
#
# Track frame offsets:
#	150
#	20325
#	41590
#	61375
#	87275
#	104420
#	116215
#	133680
#	162300
#	180750
# Disc length: 2667 seconds
#
# Revision: 1
# Processed by: cddbd v1.4PL0 Copyright (c) Steve Scherf et al.
# Submitted via: CDCOPY 4.900
#
DISCID=7e0a690a
DTITLE=John Langford - Take A Look
DYEAR=1900
DGENRE=
TTITLE0=Call Me
TTITLE1=What You've Said
TTITLE2=Doreen
TTITLE3=When You Coming Back
TTITLE4=Sally
TTITLE5=Roll On
TTITLE6=Crescent Avenue
TTITLE7=Take A Look
TTITLE8=There Ever Was
TTITLE9=Goodbye Rosemary
EXTD=
EXTT0=
EXTT1=
EXTT2=
EXTT3=
EXTT4=
EXTT5=
EXTT6=
EXTT7=
EXTT8=
EXTT9=
PLAYORDER=
